<svg width="38" height="38" viewBox="0 0 38 38" fill="none" xmlns="http://www.w3.org/2000/svg">
<path d="M19.295 37.59C29.399 37.59 37.59 29.399 37.59 19.295C37.59 9.19095 29.399 1 19.295 1C9.19095 1 1 9.19095 1 19.295C1 29.399 9.19095 37.59 19.295 37.59Z" fill="#FDFC00"/>
<path d="M19.0143 18.9504L19.2951 18.6441L19.1483 18.9377L21.101 18.7973L35.3439 10.5017C34.3478 8.69546 33.0533 7.07083 31.5152 5.69659L18.7527 18.9504H19.0143Z" fill="#FDDD66" stroke="#675829" stroke-width="0.159531" stroke-miterlimit="10"/>
<path d="M37.3604 16.4298C37.1579 15.1442 36.8178 13.8841 36.3458 12.6713L23.4302 18.2804L37.3604 16.4298Z" fill="#FDDD66" stroke="#675829" stroke-width="0.159531" stroke-miterlimit="10"/>
<path d="M18.7782 18.9632L1.02563 20.2394C1.12652 22.309 1.5797 24.3462 2.36569 26.2633L16.8256 21.018L18.7782 18.9632Z" fill="#FDDD66" stroke="#675829" stroke-width="0.159531" stroke-miterlimit="10"/>
<path d="M18.1782 20.501L16.902 21.2349L6.5835 32.4659C7.84266 33.6727 9.26458 34.6972 10.8079 35.5097L18.4015 20.4181L18.1782 20.501Z" fill="#FDDD66" stroke="#675829" stroke-width="0.159531" stroke-miterlimit="10"/>
<path d="M19.295 37.59C29.399 37.59 37.59 29.399 37.59 19.295C37.59 9.19095 29.399 1 19.295 1C9.19095 1 1 9.19095 1 19.295C1 29.399 9.19095 37.59 19.295 37.59Z" stroke="#675829" stroke-width="0.319062" stroke-miterlimit="10"/>
<path d="M19.2949 31.5023C26.0369 31.5023 31.5022 26.0369 31.5022 19.295C31.5022 12.5531 26.0369 7.08771 19.2949 7.08771C12.553 7.08771 7.08765 12.5531 7.08765 19.295C7.08765 26.0369 12.553 31.5023 19.2949 31.5023Z" fill="#FEFE99" stroke="#675829" stroke-width="0.319062" stroke-miterlimit="10"/>
<path d="M20.8647 10.4634H17.7187C17.3099 10.4634 16.9785 10.7948 16.9785 11.2036V27.38C16.9785 27.7888 17.3099 28.1203 17.7187 28.1203H20.8647C21.2735 28.1203 21.6049 27.7888 21.6049 27.38V11.2036C21.6049 10.7948 21.2735 10.4634 20.8647 10.4634Z" fill="#FDDD66" stroke="#675829" stroke-width="0.319062" stroke-linecap="round" stroke-linejoin="round"/>
</svg>
